<svg xmlns="http://www.w3.org/2000/svg" version="1.1" style="font-family:Lato, &#x27;Helvetica Neue&#x27;, Helvetica, Arial, &#x27;Liberation Sans&#x27;, sans-serif;font-size:18px;background-color:white;text-rendering:geometricPrecision;-webkit-font-smoothing:antialiased" width="850" height="600" viewBox="0 0 850 600"><defs><style>@import url(https://ourworldindata.org/fonts.css)</style></defs><defs><pattern id="noDataPattern" patternUnits="userSpaceOnUse" width="4" height="4" patternTransform="rotate(-45 2 2)"><path d="M -1,2 l 6,0" stroke="#ccc" stroke-width="0.7"></path></pattern></defs><rect class="background-fill" fill="white" width="850" height="600"></rect><g class="HeaderView"><g transform="translate(769, 16) scale(1)"><svg className="owidLogo" xmlns="http://www.w3.org/2000/svg" width="65" height="36" viewBox="0 0 65 36"  fill="none"><path fill="#002147" d="M0 0h64.8v36H0z"/><path fill="#CE261E" d="M0 33.3h64.8V36H0z"/><path fill="#fff" d="M13.796 10.575c0 .636-.106 1.226-.318 1.77a4.193 4.193 0 0 1-.894 1.404 4.084 4.084 0 0 1-1.386.93c-.54.22-1.138.33-1.794.33-.656 0-1.256-.11-1.8-.33a4.149 4.149 0 0 1-1.392-.93 4.193 4.193 0 0 1-.894-1.404A4.833 4.833 0 0 1 5 10.575c0-.636.106-1.224.318-1.764a4.18 4.18 0 0 1 .894-1.41 4.076 4.076 0 0 1 1.392-.924 4.684 4.684 0 0 1 1.8-.336c.656 0 1.254.112 1.794.336.54.224 1.002.534 1.386.93.384.392.682.86.894 1.404.212.54.318 1.128.318 1.764Zm-1.656 0c0-.476-.064-.902-.192-1.278a2.671 2.671 0 0 0-.54-.966 2.332 2.332 0 0 0-.864-.606 2.94 2.94 0 0 0-1.14-.21c-.424 0-.806.07-1.146.21-.34.14-.63.342-.87.606a2.742 2.742 0 0 0-.546.966 3.955 3.955 0 0 0-.192 1.278c0 .476.064.904.192 1.284.128.376.31.696.546.96.24.26.53.46.87.6.34.14.722.21 1.146.21.424 0 .804-.07 1.14-.21.34-.14.628-.34.864-.6.236-.264.416-.584.54-.96a4.01 4.01 0 0 0 .192-1.284ZM16.104 8.757v3.912c0 .376.086.668.258.876.176.204.438.306.786.306.256 0 .496-.056.72-.168a2.58 2.58 0 0 0 .636-.474V8.757h1.482v6.156h-.906c-.192 0-.318-.09-.378-.27l-.102-.492a4.65 4.65 0 0 1-.396.354 2.577 2.577 0 0 1-.438.27 2.35 2.35 0 0 1-.498.168 2.345 2.345 0 0 1-.57.066c-.336 0-.634-.056-.894-.168a1.821 1.821 0 0 1-.648-.486 2.157 2.157 0 0 1-.402-.738 3.233 3.233 0 0 1-.132-.948V8.757h1.482ZM21.328 14.913V8.757h.87c.152 0 .258.028.318.084.06.056.1.152.12.288l.09.744c.22-.38.478-.68.774-.9.296-.22.628-.33.996-.33.304 0 .556.07.756.21l-.192 1.11c-.012.072-.038.124-.078.156a.278.278 0 0 1-.162.042 1.01 1.01 0 0 1-.246-.042 1.646 1.646 0 0 0-.414-.042c-.308 0-.572.086-.792.258-.22.168-.406.416-.558.744v3.834h-1.482ZM27.347 6.237h1.356a.57.57 0 0 1 .348.102c.096.064.16.152.192.264l1.476 5.19c.036.128.068.268.096.42.032.148.062.306.09.474a5.968 5.968 0 0 1 .228-.894l1.704-5.19a.575.575 0 0 1 .186-.252.543.543 0 0 1 .348-.114h.474a.57.57 0 0 1 .348.102.497.497 0 0 1 .192.264l1.692 5.19c.088.256.164.54.228.852.028-.156.056-.306.084-.45.032-.144.064-.278.096-.402l1.476-5.19c.028-.1.09-.186.186-.258a.563.563 0 0 1 .348-.108h1.266l-2.694 8.676h-1.458l-1.896-5.928-.078-.246a9.504 9.504 0 0 1-.072-.282c-.024.1-.05.194-.078.282-.024.088-.048.17-.072.246l-1.914 5.928H30.04l-2.694-8.676ZM42.771 8.661c.46 0 .876.074 1.248.222.376.148.696.358.96.63s.468.604.612.996c.144.392.216.83.216 1.314 0 .488-.072.928-.216 1.32a2.85 2.85 0 0 1-.612 1.002 2.653 2.653 0 0 1-.96.636 3.35 3.35 0 0 1-1.248.222c-.46 0-.878-.074-1.254-.222a2.712 2.712 0 0 1-.966-.636 2.922 2.922 0 0 1-.618-1.002 3.807 3.807 0 0 1-.216-1.32c0-.484.072-.922.216-1.314.148-.392.354-.724.618-.996.268-.272.59-.482.966-.63a3.397 3.397 0 0 1 1.254-.222Zm0 5.202c.512 0 .89-.172 1.134-.516.248-.344.372-.848.372-1.512s-.124-1.17-.372-1.518c-.244-.348-.622-.522-1.134-.522-.52 0-.904.176-1.152.528-.248.348-.372.852-.372 1.512s.124 1.164.372 1.512c.248.344.632.516 1.152.516ZM46.723 14.913V8.757h.87c.152 0 .258.028.318.084.06.056.1.152.12.288l.09.744c.22-.38.478-.68.774-.9.296-.22.628-.33.996-.33.304 0 .556.07.756.21l-.192 1.11c-.012.072-.038.124-.078.156a.278.278 0 0 1-.162.042 1.01 1.01 0 0 1-.246-.042 1.646 1.646 0 0 0-.414-.042c-.308 0-.572.086-.792.258-.22.168-.406.416-.558.744v3.834h-1.482ZM52.96 5.997v8.916h-1.482V5.997h1.482ZM58.732 14.913c-.192 0-.318-.09-.378-.27l-.12-.594a3.68 3.68 0 0 1-.402.39c-.14.116-.292.216-.456.3-.16.084-.334.148-.522.192a2.372 2.372 0 0 1-.6.072c-.336 0-.644-.07-.924-.21a2.098 2.098 0 0 1-.726-.606 3.033 3.033 0 0 1-.468-.99 5.072 5.072 0 0 1-.162-1.344c0-.456.062-.88.186-1.272s.302-.732.534-1.02c.232-.288.51-.512.834-.672a2.384 2.384 0 0 1 1.092-.246 2.103 2.103 0 0 1 1.536.606V5.997h1.482v8.916h-.906Zm-1.974-1.086c.308 0 .57-.064.786-.192.216-.128.42-.31.612-.546v-2.76a1.452 1.452 0 0 0-.552-.432 1.597 1.597 0 0 0-.636-.126c-.224 0-.428.042-.612.126a1.21 1.21 0 0 0-.462.384c-.124.168-.22.384-.288.648-.068.26-.102.568-.102.924 0 .36.028.666.084.918.06.248.144.452.252.612.108.156.24.27.396.342.156.068.33.102.522.102ZM16.331 20.757v6.156H14.85v-6.156h1.481Zm.223-1.794a.844.844 0 0 1-.078.36.963.963 0 0 1-.21.294.995.995 0 0 1-.3.204.963.963 0 0 1-.372.072.948.948 0 0 1-.367-.072 1.018 1.018 0 0 1-.498-.498.963.963 0 0 1 0-.732.995.995 0 0 1 .205-.3.929.929 0 0 1 .293-.198.899.899 0 0 1 .738 0 .912.912 0 0 1 .3.198.943.943 0 0 1 .288.672ZM17.771 26.913v-6.156h.906c.192 0 .318.09.378.27l.102.486a2.934 2.934 0 0 1 .828-.618c.156-.076.322-.134.498-.174.176-.04.368-.06.576-.06.336 0 .634.058.894.174.26.112.476.272.648.48.176.204.308.45.396.738.092.284.138.598.138.942v3.918h-1.482v-3.918c0-.376-.088-.666-.264-.87-.172-.208-.432-.312-.78-.312-.256 0-.496.058-.72.174a2.58 2.58 0 0 0-.636.474v4.452h-1.482ZM34.22 22.575c0 .636-.106 1.22-.318 1.752-.212.532-.51.99-.894 1.374a4 4 0 0 1-1.386.894 4.87 4.87 0 0 1-1.794.318h-3.312v-8.676h3.312a4.79 4.79 0 0 1 1.794.324 4 4 0 0 1 1.386.894c.384.38.682.836.894 1.368.212.532.318 1.116.318 1.752Zm-1.65 0c0-.476-.064-.902-.192-1.278a2.68 2.68 0 0 0-.546-.96 2.332 2.332 0 0 0-.864-.606 2.94 2.94 0 0 0-1.14-.21h-1.686v6.108h1.686c.424 0 .804-.07 1.14-.21.34-.14.628-.34.864-.6a2.75 2.75 0 0 0 .546-.96 4.01 4.01 0 0 0 .192-1.284ZM39.98 26.913h-.665c-.14 0-.25-.02-.33-.06-.08-.044-.14-.13-.18-.258l-.132-.438c-.156.14-.31.264-.462.372a2.804 2.804 0 0 1-.462.264c-.16.072-.33.126-.51.162-.18.036-.38.054-.6.054-.26 0-.5-.034-.72-.102a1.618 1.618 0 0 1-.57-.318 1.448 1.448 0 0 1-.366-.522 1.852 1.852 0 0 1-.132-.726c0-.232.06-.46.18-.684.124-.228.328-.432.612-.612.284-.184.662-.336 1.134-.456.472-.12 1.058-.188 1.758-.204v-.36c0-.412-.088-.716-.264-.912-.172-.2-.424-.3-.756-.3a1.837 1.837 0 0 0-1.02.276c-.116.068-.224.13-.324.186a.664.664 0 0 1-.33.084.429.429 0 0 1-.258-.078.614.614 0 0 1-.174-.192l-.27-.474c.708-.648 1.562-.972 2.562-.972.36 0 .68.06.96.18.284.116.524.28.72.492.196.208.344.458.444.75.104.292.156.612.156.96v3.888Zm-2.88-.924c.153 0 .293-.014.42-.042.129-.028.249-.07.36-.126.117-.056.227-.124.33-.204.109-.084.217-.182.325-.294v-1.038c-.432.02-.794.058-1.086.114-.288.052-.52.12-.696.204a.923.923 0 0 0-.378.294.664.664 0 0 0-.108.366c0 .26.076.446.228.558.156.112.358.168.606.168ZM43.22 27.01c-.532 0-.942-.15-1.23-.45-.288-.305-.432-.723-.432-1.255v-3.438h-.624a.31.31 0 0 1-.21-.078c-.056-.052-.084-.13-.084-.234v-.588l.99-.162.312-1.68a.302.302 0 0 1 .108-.186.365.365 0 0 1 .222-.066h.768v1.938h1.62v1.056h-1.62v3.336c0 .192.048.342.144.45a.488.488 0 0 0 .384.162c.092 0 .168-.01.228-.03.064-.024.118-.048.162-.072.048-.024.09-.046.126-.066a.194.194 0 0 1 .108-.036.16.16 0 0 1 .108.036c.028.02.058.052.09.096l.444.72c-.216.18-.464.316-.744.408a2.77 2.77 0 0 1-.87.138ZM50.423 26.913h-.666c-.14 0-.25-.02-.33-.06-.08-.044-.14-.13-.18-.258l-.132-.438c-.156.14-.31.264-.462.372a2.804 2.804 0 0 1-.462.264c-.16.072-.33.126-.51.162-.18.036-.38.054-.6.054-.26 0-.5-.034-.72-.102a1.618 1.618 0 0 1-.57-.318 1.448 1.448 0 0 1-.366-.522 1.852 1.852 0 0 1-.132-.726c0-.232.06-.46.18-.684.124-.228.328-.432.612-.612.284-.184.662-.336 1.134-.456.472-.12 1.058-.188 1.758-.204v-.36c0-.412-.088-.716-.264-.912-.172-.2-.424-.3-.756-.3a1.837 1.837 0 0 0-1.02.276c-.116.068-.224.13-.324.186a.664.664 0 0 1-.33.084.429.429 0 0 1-.258-.078.614.614 0 0 1-.174-.192l-.27-.474c.708-.648 1.562-.972 2.562-.972.36 0 .68.06.96.18.284.116.524.28.72.492.196.208.344.458.444.75.104.292.156.612.156.96v3.888Zm-2.88-.924c.152 0 .292-.014.42-.042.128-.028.248-.07.36-.126.116-.056.226-.124.33-.204.108-.084.216-.182.324-.294v-1.038c-.432.02-.794.058-1.086.114-.288.052-.52.12-.696.204a.923.923 0 0 0-.378.294.664.664 0 0 0-.108.366c0 .26.076.446.228.558.156.112.358.168.606.168Z"/></svg></g><a href="https://ourworldindata.org/grapher/total-government-expenditure-on-education-gdp?tab=chart&amp;country=USA~GBR~FRA~DEU~CHN~SGP" style="font-family:&#x27;Playfair Display&#x27;, Georgia, &#x27;Times New Roman&#x27;, &#x27;Liberation Serif&#x27;, serif" target="_blank" rel="noopener"><text font-size="24.75" font-weight="600" x="16.0" y="40.0" fill="#5b5b5b"><tspan x="16" y="40.0075">Public spending on education as a share of GDP</tspan></text></a><g class="markdown-text-wrap"><text x="16.0" y="63.9" style="font-size:14.625px;line-height:1.2" fill="#5b5b5b"><tspan x="16" y="63.9">Total general government expenditure on education (all levels of government and all levels of education), given as</tspan><tspan x="16" y="81.4">a share of GDP.</tspan></text></g></g><g style="pointer-events:none"><g class="LineChart"><defs><clipPath id="boundsClip-3"><rect x="30.575000000000003" y="90.8" width="838" height="452.8"></rect></clipPath></defs><rect x="16" y="100.8" width="818" height="432.8" fill="none"></rect><g class="DualAxisView"><g class="HorizontalAxis"><line x1="40.6" y1="513.1" x2="40.6" y2="518.1" stroke="#999" stroke-width="1"></line><line x1="702.6" y1="513.1" x2="702.6" y2="518.1" stroke="#999" stroke-width="1"></line><line x1="171.2" y1="513.1" x2="171.2" y2="518.1" stroke="#999" stroke-width="1"></line><line x1="258.3" y1="513.1" x2="258.3" y2="518.1" stroke="#999" stroke-width="1"></line><line x1="345.5" y1="513.1" x2="345.5" y2="518.1" stroke="#999" stroke-width="1"></line><line x1="432.6" y1="513.1" x2="432.6" y2="518.1" stroke="#999" stroke-width="1"></line><line x1="519.7" y1="513.1" x2="519.7" y2="518.1" stroke="#999" stroke-width="1"></line><line x1="606.8" y1="513.1" x2="606.8" y2="518.1" stroke="#999" stroke-width="1"></line><text x="40.575" y="531.6" fill="#5b5b5b" text-anchor="start" font-size="13.5">1870</text><text x="702.61" y="531.6" fill="#5b5b5b" text-anchor="end" font-size="13.5">2022</text><text x="171.2" y="531.6" fill="#5b5b5b" text-anchor="middle" font-size="13.5">1900</text><text x="258.3" y="531.6" fill="#5b5b5b" text-anchor="middle" font-size="13.5">1920</text><text x="345.5" y="531.6" fill="#5b5b5b" text-anchor="middle" font-size="13.5">1940</text><text x="432.6" y="531.6" fill="#5b5b5b" text-anchor="middle" font-size="13.5">1960</text><text x="519.7" y="531.6" fill="#5b5b5b" text-anchor="middle" font-size="13.5">1980</text><text x="606.8" y="531.6" fill="#5b5b5b" text-anchor="middle" font-size="13.5">2000</text></g><g class="VerticalAxis"><text x="35.58" y="513.1" dy=".32em" text-anchor="end" fill="#5b5b5b" font-size="13.5">0%</text><text x="35.58" y="452.8" dy=".32em" text-anchor="end" fill="#5b5b5b" font-size="13.5">1%</text><text x="35.58" y="392.5" dy=".32em" text-anchor="end" fill="#5b5b5b" font-size="13.5">2%</text><text x="35.58" y="332.2" dy=".32em" text-anchor="end" fill="#5b5b5b" font-size="13.5">3%</text><text x="35.58" y="271.9" dy=".32em" text-anchor="end" fill="#5b5b5b" font-size="13.5">4%</text><text x="35.58" y="211.6" dy=".32em" text-anchor="end" fill="#5b5b5b" font-size="13.5">5%</text><text x="35.58" y="151.3" dy=".32em" text-anchor="end" fill="#5b5b5b" font-size="13.5">6%</text></g><g class="AxisGridLines horizontalLines"><line x1="40.58" y1="513.1" x2="702.61" y2="513.1" stroke="#999" stroke-width="1"></line><line x1="40.58" y1="452.8" x2="702.61" y2="452.8" stroke="#ddd" stroke-width="1" stroke-dasharray="3,2"></line><line x1="40.58" y1="392.5" x2="702.61" y2="392.5" stroke="#ddd" stroke-width="1" stroke-dasharray="3,2"></line><line x1="40.58" y1="332.2" x2="702.61" y2="332.2" stroke="#ddd" stroke-width="1" stroke-dasharray="3,2"></line><line x1="40.58" y1="271.9" x2="702.61" y2="271.9" stroke="#ddd" stroke-width="1" stroke-dasharray="3,2"></line><line x1="40.58" y1="211.6" x2="702.61" y2="211.6" stroke="#ddd" stroke-width="1" stroke-dasharray="3,2"></line><line x1="40.58" y1="151.3" x2="702.61" y2="151.3" stroke="#ddd" stroke-width="1" stroke-dasharray="3,2"></line></g></g><g clip-path="url(#boundsClip-3)"><g class="LineLabels" style="cursor:default"><g class="legendMark"><g class="indicator"><path d="M706.61,185.4 H715.61 V175.9 H733.61" stroke="#999" stroke-width="0.5" fill="none"></path></g><rect x="702.61" y="169.15" width="116.405" height="13.5" fill="#fff" opacity="0"></rect><text font-size="13.50" font-weight="400" x="737.6" y="180.9" fill="#286bbb"><tspan x="737.61" y="180.895">United States</tspan></text></g><g class="legendMark"><g class="indicator"><path d="M706.61,191.9 H724.61 V191.4 H733.61" stroke="#999" stroke-width="0.5" fill="none"></path></g><rect x="702.61" y="184.65" width="131.39" height="13.5" fill="#fff" opacity="0"></rect><text font-size="13.50" font-weight="400" x="737.6" y="196.4" fill="#6d3e91"><tspan x="737.61" y="196.395">United Kingdom</tspan></text></g><g class="legendMark"><g class="indicator"><path d="M706.61,196.9 H724.61 V206.9 H733.61" stroke="#999" stroke-width="0.5" fill="none"></path></g><rect x="702.61" y="200.15" width="77.12" height="13.5" fill="#fff" opacity="0"></rect><text font-size="13.50" font-weight="400" x="737.6" y="211.9" fill="#c15065"><tspan x="737.61" y="211.895">France</tspan></text></g><g class="legendMark"><g class="indicator"><path d="M706.61,239.9 H720.11 V239.9 H733.61" stroke="#999" stroke-width="0.5" fill="none"></path></g><rect x="702.61" y="233.15" width="90.62" height="13.5" fill="#fff" opacity="0"></rect><text font-size="13.50" font-weight="400" x="737.6" y="244.9" fill="#2c8465"><tspan x="737.61" y="244.895">Germany</tspan></text></g><g class="legendMark"><g class="indicator"><path d="M706.61,314.3 H720.11 V314.3 H733.61" stroke="#999" stroke-width="0.5" fill="none"></path></g><rect x="702.61" y="307.55" width="70.37" height="13.5" fill="#fff" opacity="0"></rect><text font-size="13.50" font-weight="400" x="737.6" y="319.3" fill="#883039"><tspan x="737.61" y="319.295">China</tspan></text></g><g class="legendMark"><g class="indicator"><path d="M706.61,369.1 H720.11 V369.1 H733.61" stroke="#999" stroke-width="0.5" fill="none"></path></g><rect x="702.61" y="362.35" width="96.83000000000001" height="13.5" fill="#fff" opacity="0"></rect><text font-size="13.50" font-weight="400" x="737.6" y="374.1" fill="#996d39"><tspan x="737.61" y="374.095">Singapore</tspan></text></g></g><g class="Lines"><rect x="41" y="107" width="662" height="406" fill="rgba(255,255,255,0)" opacity="0"></rect><g><path stroke-linecap="round" stroke-linejoin="round" stroke="#ddd" d="M480.5 325.6L484.8 340.2L489.2 363L493.5 369.1L497.9 366L502.3 350.8L506.6 365.3L511 375L515.3 377.5L519.7 358.8L524 357.3L528.4 316.1L532.7 275.1L554.5 292.9L606.8 312.8L611.1 299.5L615.5 279.2L619.9 273L624.2 292.9L628.6 320.4L632.9 340.7L637.3 335.4L641.6 346.4L646 331.6L650.3 327.4L654.7 330.4L659.1 327.9L663.4 341L667.8 336.8L672.1 340.5L676.5 339.9L680.8 346.8L685.2 340.9L689.5 348.5L693.9 351.1L698.3 342.3L702.6 369.1" fill="none" stroke-width="1"></path></g><g><path stroke-linecap="round" stroke-linejoin="round" stroke="#ddd" d="M480.5 429.4L484.8 416.3L489.2 413.6L493.5 406.9L497.9 410.1L502.3 403.6L506.6 407.6L511 395L515.3 383.6L519.7 397.8L524 395.6L528.4 390.4L532.7 387.9L537.1 392.6L541.5 392L545.8 388.8L550.2 404.3L554.5 406.7L571.9 413.3L576.3 413.1L580.7 393.4L585 402L589.4 401.4L598.1 401.9L602.4 399.3L637.3 350.3L641.6 294.1L646 286.9L650.3 286.7L654.7 300.7L659.1 275.3L663.4 289.4L667.8 297.2L672.1 283.2L676.5 286.3L680.8 292L685.2 299.5L689.5 299.6L693.9 297.7L698.3 314.3" fill="none" stroke-width="1"></path></g><g><path stroke-linecap="round" stroke-linejoin="round" stroke="#ddd" d="M432.6 271.9L576.3 181.5L606.8 146.2L611.1 133.3L615.5 129.6L619.9 131.5L624.2 136L628.6 141L632.9 141.4L637.3 136.7L641.6 125L646 106.8L650.3 109.5L654.7 121.3L659.1 136L663.4 137.5L667.8 143.5L672.1 214.8L676.5 223.3L680.8 204.2L685.2 215.9L689.5 212.4L693.9 185.4" fill="none" stroke-width="1"></path></g><g><path stroke-linecap="round" stroke-linejoin="round" stroke="#ddd" d="M40.6 507.1L227.9 446.8L332.4 271.9L432.6 253.8L480.5 209.7L484.8 202L489.2 184.6L493.5 188.1L497.9 135.1L502.3 125.8L506.6 147.5L519.7 207.4L524 194.2L528.4 200.3L532.7 207.9L537.1 217.7L541.5 236.1L545.8 249L550.2 249.5L554.5 255.7L558.9 264.4L563.2 268.6L567.6 264.5L571.9 251.8L576.3 187.5L580.7 220.6L585 221.3L589.4 249.5L598.1 259.6L602.4 272.8L606.8 271L611.1 266L615.5 234.8L619.9 223.6L624.2 227.9L628.6 216L632.9 213.2L637.3 216.3L641.6 217.3L646 208.1L650.3 170.2L654.7 177.9L659.1 173.8L663.4 179.9L667.8 175.6L672.1 178.3L676.5 186.6L680.8 185.6L685.2 199.7L689.5 196.6L693.9 181.6L698.3 191.9" fill="none" stroke-width="1"></path></g><g><path stroke-linecap="round" stroke-linejoin="round" stroke="#ddd" d="M40.6 434.7L227.9 350.3L432.6 338.2L519.7 229.7L576.3 247.3L580.7 251.6L585 246L589.4 242.1L598.1 244.1L606.8 267.8L611.1 263.1L615.5 262.1L619.9 261.6L624.2 265.9L628.6 234.2L632.9 270.4L637.3 276.6L641.6 238.8L646 251.4L650.3 205.9L654.7 212.6L659.1 215.9L663.4 215.5L667.8 216.4L672.1 220.4L676.5 221.3L680.8 219.4L685.2 212.9L689.5 204.6L693.9 176.2L698.3 239.9" fill="none" stroke-width="1"></path></g><g><path stroke-linecap="round" stroke-linejoin="round" stroke="#ddd" d="M40.6 495L227.9 422.7L332.4 434.7L432.6 368.4L476.1 306.3L480.5 321.7L484.8 310.6L489.2 318.4L493.5 257.3L497.9 246.1L502.3 246.3L506.6 245.7L511 251.1L515.3 255L519.7 253.4L524 227.9L528.4 220.6L532.7 220.5L537.1 219.6L541.5 220.6L545.8 229.2L550.2 234.3L554.5 239.1L558.9 244.4L563.2 240.9L567.6 221.2L571.9 227.6L576.3 185.7L580.7 173.9L585 164L589.4 166L598.1 170.2L606.8 175.4L611.1 174.4L615.5 164.5L619.9 165.7L624.2 178.5L628.6 183.3L632.9 183L637.3 193.3L641.6 187.3L646 167.4L650.3 171.9L654.7 182.5L659.1 184.1L663.4 181.5L667.8 180.8L672.1 183.6L676.5 186.4L680.8 184.4L685.2 187.1L689.5 190.3L693.9 170.8L698.3 196.9" fill="none" stroke-width="1"></path></g><g><path fill="none" stroke-linecap="butt" stroke-linejoin="round" stroke="#fff" stroke-width="2.5" d="M480.5 325.6L484.8 340.2L489.2 363L493.5 369.1L497.9 366L502.3 350.8L506.6 365.3L511 375L515.3 377.5L519.7 358.8L524 357.3L528.4 316.1L532.7 275.1L554.5 292.9L606.8 312.8L611.1 299.5L615.5 279.2L619.9 273L624.2 292.9L628.6 320.4L632.9 340.7L637.3 335.4L641.6 346.4L646 331.6L650.3 327.4L654.7 330.4L659.1 327.9L663.4 341L667.8 336.8L672.1 340.5L676.5 339.9L680.8 346.8L685.2 340.9L689.5 348.5L693.9 351.1L698.3 342.3L702.6 369.1"></path><polyline points="480.50,325.60 484.80,340.20 489.20,363.00 493.50,369.10 497.90,366.00 502.30,350.80 506.60,365.30 511.00,375.00 515.30,377.50 519.70,358.80 524.00,357.30 528.40,316.10 532.70,275.10 554.50,292.90 606.80,312.80 611.10,299.50 615.50,279.20 619.90,273.00 624.20,292.90 628.60,320.40 632.90,340.70 637.30,335.40 641.60,346.40 646.00,331.60 650.30,327.40 654.70,330.40 659.10,327.90 663.40,341.00 667.80,336.80 672.10,340.50 676.50,339.90 680.80,346.80 685.20,340.90 689.50,348.50 693.90,351.10 698.30,342.30 702.60,369.10" stroke-linejoin="round" stroke-width="1.5" stroke="#996D39" fill="none" stroke-linecap="butt"></polyline><g><circle cx="480.5" cy="325.6" r="1.8" fill="#996D39"></circle><circle cx="484.8" cy="340.2" r="1.8" fill="#996D39"></circle><circle cx="489.2" cy="363" r="1.8" fill="#996D39"></circle><circle cx="493.5" cy="369.1" r="1.8" fill="#996D39"></circle><circle cx="497.9" cy="366" r="1.8" fill="#996D39"></circle><circle cx="502.3" cy="350.8" r="1.8" fill="#996D39"></circle><circle cx="506.6" cy="365.3" r="1.8" fill="#996D39"></circle><circle cx="511" cy="375" r="1.8" fill="#996D39"></circle><circle cx="515.3" cy="377.5" r="1.8" fill="#996D39"></circle><circle cx="519.7" cy="358.8" r="1.8" fill="#996D39"></circle><circle cx="524" cy="357.3" r="1.8" fill="#996D39"></circle><circle cx="528.4" cy="316.1" r="1.8" fill="#996D39"></circle><circle cx="532.7" cy="275.1" r="1.8" fill="#996D39"></circle><circle cx="554.5" cy="292.9" r="1.8" fill="#996D39"></circle><circle cx="606.8" cy="312.8" r="1.8" fill="#996D39"></circle><circle cx="611.1" cy="299.5" r="1.8" fill="#996D39"></circle><circle cx="615.5" cy="279.2" r="1.8" fill="#996D39"></circle><circle cx="619.9" cy="273" r="1.8" fill="#996D39"></circle><circle cx="624.2" cy="292.9" r="1.8" fill="#996D39"></circle><circle cx="628.6" cy="320.4" r="1.8" fill="#996D39"></circle><circle cx="632.9" cy="340.7" r="1.8" fill="#996D39"></circle><circle cx="637.3" cy="335.4" r="1.8" fill="#996D39"></circle><circle cx="641.6" cy="346.4" r="1.8" fill="#996D39"></circle><circle cx="646" cy="331.6" r="1.8" fill="#996D39"></circle><circle cx="650.3" cy="327.4" r="1.8" fill="#996D39"></circle><circle cx="654.7" cy="330.4" r="1.8" fill="#996D39"></circle><circle cx="659.1" cy="327.9" r="1.8" fill="#996D39"></circle><circle cx="663.4" cy="341" r="1.8" fill="#996D39"></circle><circle cx="667.8" cy="336.8" r="1.8" fill="#996D39"></circle><circle cx="672.1" cy="340.5" r="1.8" fill="#996D39"></circle><circle cx="676.5" cy="339.9" r="1.8" fill="#996D39"></circle><circle cx="680.8" cy="346.8" r="1.8" fill="#996D39"></circle><circle cx="685.2" cy="340.9" r="1.8" fill="#996D39"></circle><circle cx="689.5" cy="348.5" r="1.8" fill="#996D39"></circle><circle cx="693.9" cy="351.1" r="1.8" fill="#996D39"></circle><circle cx="698.3" cy="342.3" r="1.8" fill="#996D39"></circle><circle cx="702.6" cy="369.1" r="1.8" fill="#996D39"></circle></g></g><g><path fill="none" stroke-linecap="butt" stroke-linejoin="round" stroke="#fff" stroke-width="2.5" d="M480.5 429.4L484.8 416.3L489.2 413.6L493.5 406.9L497.9 410.1L502.3 403.6L506.6 407.6L511 395L515.3 383.6L519.7 397.8L524 395.6L528.4 390.4L532.7 387.9L537.1 392.6L541.5 392L545.8 388.8L550.2 404.3L554.5 406.7L571.9 413.3L576.3 413.1L580.7 393.4L585 402L589.4 401.4L598.1 401.9L602.4 399.3L637.3 350.3L641.6 294.1L646 286.9L650.3 286.7L654.7 300.7L659.1 275.3L663.4 289.4L667.8 297.2L672.1 283.2L676.5 286.3L680.8 292L685.2 299.5L689.5 299.6L693.9 297.7L698.3 314.3"></path><polyline points="480.50,429.40 484.80,416.30 489.20,413.60 493.50,406.90 497.90,410.10 502.30,403.60 506.60,407.60 511.00,395.00 515.30,383.60 519.70,397.80 524.00,395.60 528.40,390.40 532.70,387.90 537.10,392.60 541.50,392.00 545.80,388.80 550.20,404.30 554.50,406.70 571.90,413.30 576.30,413.10 580.70,393.40 585.00,402.00 589.40,401.40 598.10,401.90 602.40,399.30 637.30,350.30 641.60,294.10 646.00,286.90 650.30,286.70 654.70,300.70 659.10,275.30 663.40,289.40 667.80,297.20 672.10,283.20 676.50,286.30 680.80,292.00 685.20,299.50 689.50,299.60 693.90,297.70 698.30,314.30" stroke-linejoin="round" stroke-width="1.5" stroke="#883039" fill="none" stroke-linecap="butt"></polyline><g><circle cx="480.5" cy="429.4" r="1.8" fill="#883039"></circle><circle cx="484.8" cy="416.3" r="1.8" fill="#883039"></circle><circle cx="489.2" cy="413.6" r="1.8" fill="#883039"></circle><circle cx="493.5" cy="406.9" r="1.8" fill="#883039"></circle><circle cx="497.9" cy="410.1" r="1.8" fill="#883039"></circle><circle cx="502.3" cy="403.6" r="1.8" fill="#883039"></circle><circle cx="506.6" cy="407.6" r="1.8" fill="#883039"></circle><circle cx="511" cy="395" r="1.8" fill="#883039"></circle><circle cx="515.3" cy="383.6" r="1.8" fill="#883039"></circle><circle cx="519.7" cy="397.8" r="1.8" fill="#883039"></circle><circle cx="524" cy="395.6" r="1.8" fill="#883039"></circle><circle cx="528.4" cy="390.4" r="1.8" fill="#883039"></circle><circle cx="532.7" cy="387.9" r="1.8" fill="#883039"></circle><circle cx="537.1" cy="392.6" r="1.8" fill="#883039"></circle><circle cx="541.5" cy="392" r="1.8" fill="#883039"></circle><circle cx="545.8" cy="388.8" r="1.8" fill="#883039"></circle><circle cx="550.2" cy="404.3" r="1.8" fill="#883039"></circle><circle cx="554.5" cy="406.7" r="1.8" fill="#883039"></circle><circle cx="571.9" cy="413.3" r="1.8" fill="#883039"></circle><circle cx="576.3" cy="413.1" r="1.8" fill="#883039"></circle><circle cx="580.7" cy="393.4" r="1.8" fill="#883039"></circle><circle cx="585" cy="402" r="1.8" fill="#883039"></circle><circle cx="589.4" cy="401.4" r="1.8" fill="#883039"></circle><circle cx="598.1" cy="401.9" r="1.8" fill="#883039"></circle><circle cx="602.4" cy="399.3" r="1.8" fill="#883039"></circle><circle cx="637.3" cy="350.3" r="1.8" fill="#883039"></circle><circle cx="641.6" cy="294.1" r="1.8" fill="#883039"></circle><circle cx="646" cy="286.9" r="1.8" fill="#883039"></circle><circle cx="650.3" cy="286.7" r="1.8" fill="#883039"></circle><circle cx="654.7" cy="300.7" r="1.8" fill="#883039"></circle><circle cx="659.1" cy="275.3" r="1.8" fill="#883039"></circle><circle cx="663.4" cy="289.4" r="1.8" fill="#883039"></circle><circle cx="667.8" cy="297.2" r="1.8" fill="#883039"></circle><circle cx="672.1" cy="283.2" r="1.8" fill="#883039"></circle><circle cx="676.5" cy="286.3" r="1.8" fill="#883039"></circle><circle cx="680.8" cy="292" r="1.8" fill="#883039"></circle><circle cx="685.2" cy="299.5" r="1.8" fill="#883039"></circle><circle cx="689.5" cy="299.6" r="1.8" fill="#883039"></circle><circle cx="693.9" cy="297.7" r="1.8" fill="#883039"></circle><circle cx="698.3" cy="314.3" r="1.8" fill="#883039"></circle></g></g><g><path fill="none" stroke-linecap="butt" stroke-linejoin="round" stroke="#fff" stroke-width="2.5" d="M432.6 271.9L576.3 181.5L606.8 146.2L611.1 133.3L615.5 129.6L619.9 131.5L624.2 136L628.6 141L632.9 141.4L637.3 136.7L641.6 125L646 106.8L650.3 109.5L654.7 121.3L659.1 136L663.4 137.5L667.8 143.5L672.1 214.8L676.5 223.3L680.8 204.2L685.2 215.9L689.5 212.4L693.9 185.4"></path><polyline points="432.60,271.90 576.30,181.50 606.80,146.20 611.10,133.30 615.50,129.60 619.90,131.50 624.20,136.00 628.60,141.00 632.90,141.40 637.30,136.70 641.60,125.00 646.00,106.80 650.30,109.50 654.70,121.30 659.10,136.00 663.40,137.50 667.80,143.50 672.10,214.80 676.50,223.30 680.80,204.20 685.20,215.90 689.50,212.40 693.90,185.40" stroke-linejoin="round" stroke-width="1.5" stroke="#286BBB" fill="none" stroke-linecap="butt"></polyline><g><circle cx="432.6" cy="271.9" r="1.8" fill="#286BBB"></circle><circle cx="576.3" cy="181.5" r="1.8" fill="#286BBB"></circle><circle cx="606.8" cy="146.2" r="1.8" fill="#286BBB"></circle><circle cx="611.1" cy="133.3" r="1.8" fill="#286BBB"></circle><circle cx="615.5" cy="129.6" r="1.8" fill="#286BBB"></circle><circle cx="619.9" cy="131.5" r="1.8" fill="#286BBB"></circle><circle cx="624.2" cy="136" r="1.8" fill="#286BBB"></circle><circle cx="628.6" cy="141" r="1.8" fill="#286BBB"></circle><circle cx="632.9" cy="141.4" r="1.8" fill="#286BBB"></circle><circle cx="637.3" cy="136.7" r="1.8" fill="#286BBB"></circle><circle cx="641.6" cy="125" r="1.8" fill="#286BBB"></circle><circle cx="646" cy="106.8" r="1.8" fill="#286BBB"></circle><circle cx="650.3" cy="109.5" r="1.8" fill="#286BBB"></circle><circle cx="654.7" cy="121.3" r="1.8" fill="#286BBB"></circle><circle cx="659.1" cy="136" r="1.8" fill="#286BBB"></circle><circle cx="663.4" cy="137.5" r="1.8" fill="#286BBB"></circle><circle cx="667.8" cy="143.5" r="1.8" fill="#286BBB"></circle><circle cx="672.1" cy="214.8" r="1.8" fill="#286BBB"></circle><circle cx="676.5" cy="223.3" r="1.8" fill="#286BBB"></circle><circle cx="680.8" cy="204.2" r="1.8" fill="#286BBB"></circle><circle cx="685.2" cy="215.9" r="1.8" fill="#286BBB"></circle><circle cx="689.5" cy="212.4" r="1.8" fill="#286BBB"></circle><circle cx="693.9" cy="185.4" r="1.8" fill="#286BBB"></circle></g></g><g><path fill="none" stroke-linecap="butt" stroke-linejoin="round" stroke="#fff" stroke-width="2.5" d="M40.6 507.1L227.9 446.8L332.4 271.9L432.6 253.8L480.5 209.7L484.8 202L489.2 184.6L493.5 188.1L497.9 135.1L502.3 125.8L506.6 147.5L519.7 207.4L524 194.2L528.4 200.3L532.7 207.9L537.1 217.7L541.5 236.1L545.8 249L550.2 249.5L554.5 255.7L558.9 264.4L563.2 268.6L567.6 264.5L571.9 251.8L576.3 187.5L580.7 220.6L585 221.3L589.4 249.5L598.1 259.6L602.4 272.8L606.8 271L611.1 266L615.5 234.8L619.9 223.6L624.2 227.9L628.6 216L632.9 213.2L637.3 216.3L641.6 217.3L646 208.1L650.3 170.2L654.7 177.9L659.1 173.8L663.4 179.9L667.8 175.6L672.1 178.3L676.5 186.6L680.8 185.6L685.2 199.7L689.5 196.6L693.9 181.6L698.3 191.9"></path><polyline points="40.60,507.10 227.90,446.80 332.40,271.90 432.60,253.80 480.50,209.70 484.80,202.00 489.20,184.60 493.50,188.10 497.90,135.10 502.30,125.80 506.60,147.50 519.70,207.40 524.00,194.20 528.40,200.30 532.70,207.90 537.10,217.70 541.50,236.10 545.80,249.00 550.20,249.50 554.50,255.70 558.90,264.40 563.20,268.60 567.60,264.50 571.90,251.80 576.30,187.50 580.70,220.60 585.00,221.30 589.40,249.50 598.10,259.60 602.40,272.80 606.80,271.00 611.10,266.00 615.50,234.80 619.90,223.60 624.20,227.90 628.60,216.00 632.90,213.20 637.30,216.30 641.60,217.30 646.00,208.10 650.30,170.20 654.70,177.90 659.10,173.80 663.40,179.90 667.80,175.60 672.10,178.30 676.50,186.60 680.80,185.60 685.20,199.70 689.50,196.60 693.90,181.60 698.30,191.90" stroke-linejoin="round" stroke-width="1.5" stroke="#6D3E91" fill="none" stroke-linecap="butt"></polyline><g><circle cx="40.6" cy="507.1" r="1.8" fill="#6D3E91"></circle><circle cx="227.9" cy="446.8" r="1.8" fill="#6D3E91"></circle><circle cx="332.4" cy="271.9" r="1.8" fill="#6D3E91"></circle><circle cx="432.6" cy="253.8" r="1.8" fill="#6D3E91"></circle><circle cx="480.5" cy="209.7" r="1.8" fill="#6D3E91"></circle><circle cx="484.8" cy="202" r="1.8" fill="#6D3E91"></circle><circle cx="489.2" cy="184.6" r="1.8" fill="#6D3E91"></circle><circle cx="493.5" cy="188.1" r="1.8" fill="#6D3E91"></circle><circle cx="497.9" cy="135.1" r="1.8" fill="#6D3E91"></circle><circle cx="502.3" cy="125.8" r="1.8" fill="#6D3E91"></circle><circle cx="506.6" cy="147.5" r="1.8" fill="#6D3E91"></circle><circle cx="519.7" cy="207.4" r="1.8" fill="#6D3E91"></circle><circle cx="524" cy="194.2" r="1.8" fill="#6D3E91"></circle><circle cx="528.4" cy="200.3" r="1.8" fill="#6D3E91"></circle><circle cx="532.7" cy="207.9" r="1.8" fill="#6D3E91"></circle><circle cx="537.1" cy="217.7" r="1.8" fill="#6D3E91"></circle><circle cx="541.5" cy="236.1" r="1.8" fill="#6D3E91"></circle><circle cx="545.8" cy="249" r="1.8" fill="#6D3E91"></circle><circle cx="550.2" cy="249.5" r="1.8" fill="#6D3E91"></circle><circle cx="554.5" cy="255.7" r="1.8" fill="#6D3E91"></circle><circle cx="558.9" cy="264.4" r="1.8" fill="#6D3E91"></circle><circle cx="563.2" cy="268.6" r="1.8" fill="#6D3E91"></circle><circle cx="567.6" cy="264.5" r="1.8" fill="#6D3E91"></circle><circle cx="571.9" cy="251.8" r="1.8" fill="#6D3E91"></circle><circle cx="576.3" cy="187.5" r="1.8" fill="#6D3E91"></circle><circle cx="580.7" cy="220.6" r="1.8" fill="#6D3E91"></circle><circle cx="585" cy="221.3" r="1.8" fill="#6D3E91"></circle><circle cx="589.4" cy="249.5" r="1.8" fill="#6D3E91"></circle><circle cx="598.1" cy="259.6" r="1.8" fill="#6D3E91"></circle><circle cx="602.4" cy="272.8" r="1.8" fill="#6D3E91"></circle><circle cx="606.8" cy="271" r="1.8" fill="#6D3E91"></circle><circle cx="611.1" cy="266" r="1.8" fill="#6D3E91"></circle><circle cx="615.5" cy="234.8" r="1.8" fill="#6D3E91"></circle><circle cx="619.9" cy="223.6" r="1.8" fill="#6D3E91"></circle><circle cx="624.2" cy="227.9" r="1.8" fill="#6D3E91"></circle><circle cx="628.6" cy="216" r="1.8" fill="#6D3E91"></circle><circle cx="632.9" cy="213.2" r="1.8" fill="#6D3E91"></circle><circle cx="637.3" cy="216.3" r="1.8" fill="#6D3E91"></circle><circle cx="641.6" cy="217.3" r="1.8" fill="#6D3E91"></circle><circle cx="646" cy="208.1" r="1.8" fill="#6D3E91"></circle><circle cx="650.3" cy="170.2" r="1.8" fill="#6D3E91"></circle><circle cx="654.7" cy="177.9" r="1.8" fill="#6D3E91"></circle><circle cx="659.1" cy="173.8" r="1.8" fill="#6D3E91"></circle><circle cx="663.4" cy="179.9" r="1.8" fill="#6D3E91"></circle><circle cx="667.8" cy="175.6" r="1.8" fill="#6D3E91"></circle><circle cx="672.1" cy="178.3" r="1.8" fill="#6D3E91"></circle><circle cx="676.5" cy="186.6" r="1.8" fill="#6D3E91"></circle><circle cx="680.8" cy="185.6" r="1.8" fill="#6D3E91"></circle><circle cx="685.2" cy="199.7" r="1.8" fill="#6D3E91"></circle><circle cx="689.5" cy="196.6" r="1.8" fill="#6D3E91"></circle><circle cx="693.9" cy="181.6" r="1.8" fill="#6D3E91"></circle><circle cx="698.3" cy="191.9" r="1.8" fill="#6D3E91"></circle></g></g><g><path fill="none" stroke-linecap="butt" stroke-linejoin="round" stroke="#fff" stroke-width="2.5" d="M40.6 434.7L227.9 350.3L432.6 338.2L519.7 229.7L576.3 247.3L580.7 251.6L585 246L589.4 242.1L598.1 244.1L606.8 267.8L611.1 263.1L615.5 262.1L619.9 261.6L624.2 265.9L628.6 234.2L632.9 270.4L637.3 276.6L641.6 238.8L646 251.4L650.3 205.9L654.7 212.6L659.1 215.9L663.4 215.5L667.8 216.4L672.1 220.4L676.5 221.3L680.8 219.4L685.2 212.9L689.5 204.6L693.9 176.2L698.3 239.9"></path><polyline points="40.60,434.70 227.90,350.30 432.60,338.20 519.70,229.70 576.30,247.30 580.70,251.60 585.00,246.00 589.40,242.10 598.10,244.10 606.80,267.80 611.10,263.10 615.50,262.10 619.90,261.60 624.20,265.90 628.60,234.20 632.90,270.40 637.30,276.60 641.60,238.80 646.00,251.40 650.30,205.90 654.70,212.60 659.10,215.90 663.40,215.50 667.80,216.40 672.10,220.40 676.50,221.30 680.80,219.40 685.20,212.90 689.50,204.60 693.90,176.20 698.30,239.90" stroke-linejoin="round" stroke-width="1.5" stroke="#2C8465" fill="none" stroke-linecap="butt"></polyline><g><circle cx="40.6" cy="434.7" r="1.8" fill="#2C8465"></circle><circle cx="227.9" cy="350.3" r="1.8" fill="#2C8465"></circle><circle cx="432.6" cy="338.2" r="1.8" fill="#2C8465"></circle><circle cx="519.7" cy="229.7" r="1.8" fill="#2C8465"></circle><circle cx="576.3" cy="247.3" r="1.8" fill="#2C8465"></circle><circle cx="580.7" cy="251.6" r="1.8" fill="#2C8465"></circle><circle cx="585" cy="246" r="1.8" fill="#2C8465"></circle><circle cx="589.4" cy="242.1" r="1.8" fill="#2C8465"></circle><circle cx="598.1" cy="244.1" r="1.8" fill="#2C8465"></circle><circle cx="606.8" cy="267.8" r="1.8" fill="#2C8465"></circle><circle cx="611.1" cy="263.1" r="1.8" fill="#2C8465"></circle><circle cx="615.5" cy="262.1" r="1.8" fill="#2C8465"></circle><circle cx="619.9" cy="261.6" r="1.8" fill="#2C8465"></circle><circle cx="624.2" cy="265.9" r="1.8" fill="#2C8465"></circle><circle cx="628.6" cy="234.2" r="1.8" fill="#2C8465"></circle><circle cx="632.9" cy="270.4" r="1.8" fill="#2C8465"></circle><circle cx="637.3" cy="276.6" r="1.8" fill="#2C8465"></circle><circle cx="641.6" cy="238.8" r="1.8" fill="#2C8465"></circle><circle cx="646" cy="251.4" r="1.8" fill="#2C8465"></circle><circle cx="650.3" cy="205.9" r="1.8" fill="#2C8465"></circle><circle cx="654.7" cy="212.6" r="1.8" fill="#2C8465"></circle><circle cx="659.1" cy="215.9" r="1.8" fill="#2C8465"></circle><circle cx="663.4" cy="215.5" r="1.8" fill="#2C8465"></circle><circle cx="667.8" cy="216.4" r="1.8" fill="#2C8465"></circle><circle cx="672.1" cy="220.4" r="1.8" fill="#2C8465"></circle><circle cx="676.5" cy="221.3" r="1.8" fill="#2C8465"></circle><circle cx="680.8" cy="219.4" r="1.8" fill="#2C8465"></circle><circle cx="685.2" cy="212.9" r="1.8" fill="#2C8465"></circle><circle cx="689.5" cy="204.6" r="1.8" fill="#2C8465"></circle><circle cx="693.9" cy="176.2" r="1.8" fill="#2C8465"></circle><circle cx="698.3" cy="239.9" r="1.8" fill="#2C8465"></circle></g></g><g><path fill="none" stroke-linecap="butt" stroke-linejoin="round" stroke="#fff" stroke-width="2.5" d="M40.6 495L227.9 422.7L332.4 434.7L432.6 368.4L476.1 306.3L480.5 321.7L484.8 310.6L489.2 318.4L493.5 257.3L497.9 246.1L502.3 246.3L506.6 245.7L511 251.1L515.3 255L519.7 253.4L524 227.9L528.4 220.6L532.7 220.5L537.1 219.6L541.5 220.6L545.8 229.2L550.2 234.3L554.5 239.1L558.9 244.4L563.2 240.9L567.6 221.2L571.9 227.6L576.3 185.7L580.7 173.9L585 164L589.4 166L598.1 170.2L606.8 175.4L611.1 174.4L615.5 164.5L619.9 165.7L624.2 178.5L628.6 183.3L632.9 183L637.3 193.3L641.6 187.3L646 167.4L650.3 171.9L654.7 182.5L659.1 184.1L663.4 181.5L667.8 180.8L672.1 183.6L676.5 186.4L680.8 184.4L685.2 187.1L689.5 190.3L693.9 170.8L698.3 196.9"></path><polyline points="40.60,495.00 227.90,422.70 332.40,434.70 432.60,368.40 476.10,306.30 480.50,321.70 484.80,310.60 489.20,318.40 493.50,257.30 497.90,246.10 502.30,246.30 506.60,245.70 511.00,251.10 515.30,255.00 519.70,253.40 524.00,227.90 528.40,220.60 532.70,220.50 537.10,219.60 541.50,220.60 545.80,229.20 550.20,234.30 554.50,239.10 558.90,244.40 563.20,240.90 567.60,221.20 571.90,227.60 576.30,185.70 580.70,173.90 585.00,164.00 589.40,166.00 598.10,170.20 606.80,175.40 611.10,174.40 615.50,164.50 619.90,165.70 624.20,178.50 628.60,183.30 632.90,183.00 637.30,193.30 641.60,187.30 646.00,167.40 650.30,171.90 654.70,182.50 659.10,184.10 663.40,181.50 667.80,180.80 672.10,183.60 676.50,186.40 680.80,184.40 685.20,187.10 689.50,190.30 693.90,170.80 698.30,196.90" stroke-linejoin="round" stroke-width="1.5" stroke="#C15065" fill="none" stroke-linecap="butt"></polyline><g><circle cx="40.6" cy="495" r="1.8" fill="#C15065"></circle><circle cx="227.9" cy="422.7" r="1.8" fill="#C15065"></circle><circle cx="332.4" cy="434.7" r="1.8" fill="#C15065"></circle><circle cx="432.6" cy="368.4" r="1.8" fill="#C15065"></circle><circle cx="476.1" cy="306.3" r="1.8" fill="#C15065"></circle><circle cx="480.5" cy="321.7" r="1.8" fill="#C15065"></circle><circle cx="484.8" cy="310.6" r="1.8" fill="#C15065"></circle><circle cx="489.2" cy="318.4" r="1.8" fill="#C15065"></circle><circle cx="493.5" cy="257.3" r="1.8" fill="#C15065"></circle><circle cx="497.9" cy="246.1" r="1.8" fill="#C15065"></circle><circle cx="502.3" cy="246.3" r="1.8" fill="#C15065"></circle><circle cx="506.6" cy="245.7" r="1.8" fill="#C15065"></circle><circle cx="511" cy="251.1" r="1.8" fill="#C15065"></circle><circle cx="515.3" cy="255" r="1.8" fill="#C15065"></circle><circle cx="519.7" cy="253.4" r="1.8" fill="#C15065"></circle><circle cx="524" cy="227.9" r="1.8" fill="#C15065"></circle><circle cx="528.4" cy="220.6" r="1.8" fill="#C15065"></circle><circle cx="532.7" cy="220.5" r="1.8" fill="#C15065"></circle><circle cx="537.1" cy="219.6" r="1.8" fill="#C15065"></circle><circle cx="541.5" cy="220.6" r="1.8" fill="#C15065"></circle><circle cx="545.8" cy="229.2" r="1.8" fill="#C15065"></circle><circle cx="550.2" cy="234.3" r="1.8" fill="#C15065"></circle><circle cx="554.5" cy="239.1" r="1.8" fill="#C15065"></circle><circle cx="558.9" cy="244.4" r="1.8" fill="#C15065"></circle><circle cx="563.2" cy="240.9" r="1.8" fill="#C15065"></circle><circle cx="567.6" cy="221.2" r="1.8" fill="#C15065"></circle><circle cx="571.9" cy="227.6" r="1.8" fill="#C15065"></circle><circle cx="576.3" cy="185.7" r="1.8" fill="#C15065"></circle><circle cx="580.7" cy="173.9" r="1.8" fill="#C15065"></circle><circle cx="585" cy="164" r="1.8" fill="#C15065"></circle><circle cx="589.4" cy="166" r="1.8" fill="#C15065"></circle><circle cx="598.1" cy="170.2" r="1.8" fill="#C15065"></circle><circle cx="606.8" cy="175.4" r="1.8" fill="#C15065"></circle><circle cx="611.1" cy="174.4" r="1.8" fill="#C15065"></circle><circle cx="615.5" cy="164.5" r="1.8" fill="#C15065"></circle><circle cx="619.9" cy="165.7" r="1.8" fill="#C15065"></circle><circle cx="624.2" cy="178.5" r="1.8" fill="#C15065"></circle><circle cx="628.6" cy="183.3" r="1.8" fill="#C15065"></circle><circle cx="632.9" cy="183" r="1.8" fill="#C15065"></circle><circle cx="637.3" cy="193.3" r="1.8" fill="#C15065"></circle><circle cx="641.6" cy="187.3" r="1.8" fill="#C15065"></circle><circle cx="646" cy="167.4" r="1.8" fill="#C15065"></circle><circle cx="650.3" cy="171.9" r="1.8" fill="#C15065"></circle><circle cx="654.7" cy="182.5" r="1.8" fill="#C15065"></circle><circle cx="659.1" cy="184.1" r="1.8" fill="#C15065"></circle><circle cx="663.4" cy="181.5" r="1.8" fill="#C15065"></circle><circle cx="667.8" cy="180.8" r="1.8" fill="#C15065"></circle><circle cx="672.1" cy="183.6" r="1.8" fill="#C15065"></circle><circle cx="676.5" cy="186.4" r="1.8" fill="#C15065"></circle><circle cx="680.8" cy="184.4" r="1.8" fill="#C15065"></circle><circle cx="685.2" cy="187.1" r="1.8" fill="#C15065"></circle><circle cx="689.5" cy="190.3" r="1.8" fill="#C15065"></circle><circle cx="693.9" cy="170.8" r="1.8" fill="#C15065"></circle><circle cx="698.3" cy="196.9" r="1.8" fill="#C15065"></circle></g></g></g></g></g></g><g class="SourcesFooter" style="fill:#5b5b5b"><g class="markdown-text-wrap"><text x="16.0" y="562.7" style="font-size:13.5px;line-height:1.2"><tspan x="16" y="562.7"><tspan style="font-weight:700">Data source:</tspan> Our World in Data based on Tanzi &amp; Schuknecht (2000) and UNESCO via World Bank</tspan></text></g><text font-size="13.50" x="16.0" y="580.9"><tspan x="16" y="580.8950000000001"><a target="_blank" style="fill: #5b5b5b;" href="https://ourworldindata.org/financing-education">OurWorldInData.org/financing-education</a> | <a target="_blank" style="fill: #5b5b5b;" href="https://creativecommons.org/licenses/by/4.0/">CC BY</a></tspan></text></g></svg>